<?xml version="1.0" encoding="UTF-8"?>
<svg id="Calque_2" data-name="Calque 2" xmlns="http://www.w3.org/2000/svg" xmlns:xlink="http://www.w3.org/1999/xlink" viewBox="0 0 283.46 283.46">
  <defs>
    <style>
      .cls-1 {
        fill: #432716;
      }

      .cls-2 {
        fill: #271d13;
      }

      .cls-3 {
        fill: #86a5a8;
      }

      .cls-4 {
        fill: #fff;
      }

      .cls-5 {
        fill: #dd9177;
      }

      .cls-6 {
        fill: #311e12;
      }

      .cls-7 {
        fill: #351e11;
      }

      .cls-8 {
        fill: #b2b2b2;
        stroke: #575756;
        stroke-width: .25px;
      }

      .cls-8, .cls-9 {
        stroke-miterlimit: 10;
      }

      .cls-10 {
        fill: #2e1e12;
      }

      .cls-11 {
        fill: #d4d4d1;
      }

      .cls-12 {
        fill: #2d1d12;
      }

      .cls-13 {
        fill: #301e12;
      }

      .cls-14 {
        fill: #2d1e12;
      }

      .cls-15 {
        fill: #575756;
      }

      .cls-16 {
        fill: #291d13;
      }

      .cls-17 {
        fill: #472917;
      }

      .cls-18 {
        clip-path: url(#clippath-2);
      }

      .cls-19 {
        fill: #cf946e;
      }

      .cls-20 {
        fill: #412615;
      }

      .cls-21 {
        fill: #3d2314;
      }

      .cls-22 {
        fill: #392012;
      }

      .cls-23 {
        fill: #3f2414;
      }

      .cls-24 {
        fill: #371f11;
      }

      .cls-25 {
        fill: #241d13;
      }

      .cls-26 {
        fill: #221c13;
      }

      .cls-27 {
        fill: #361f11;
      }

      .cls-28 {
        fill: #341e11;
      }

      .cls-29 {
        fill: #2f1e12;
      }

      .cls-30 {
        fill: #472a17;
      }

      .cls-31 {
        clip-path: url(#clippath-1);
      }

      .cls-32 {
        fill: #9d9d9c;
      }

      .cls-33 {
        fill: #e88f73;
      }

      .cls-34 {
        fill: #2a1d13;
      }

      .cls-35 {
        fill: #211c14;
      }

      .cls-36 {
        fill: #3b2213;
      }

      .cls-37 {
        fill: #3b2113;
      }

      .cls-38 {
        fill: #2c1d12;
      }

      .cls-39 {
        fill: #422616;
      }

      .cls-40 {
        fill: #d26c56;
      }

      .cls-41 {
        fill: #3c3c3b;
      }

      .cls-42 {
        fill: #231d13;
      }

      .cls-43 {
        fill: #492b18;
      }

      .cls-44 {
        clip-path: url(#clippath);
      }

      .cls-45 {
        fill: #3a2112;
      }

      .cls-46 {
        fill: #412515;
      }

      .cls-47 {
        fill: #331e11;
      }

      .cls-48, .cls-9 {
        fill: none;
      }

      .cls-49 {
        fill: #261d13;
      }

      .cls-50 {
        fill: #462917;
      }

      .cls-51 {
        fill: #442816;
      }

      .cls-52 {
        fill: #94251e;
      }

      .cls-53 {
        fill: #321e11;
      }

      .cls-54 {
        fill: #452817;
      }

      .cls-55 {
        fill: #3c2213;
      }

      .cls-56 {
        fill: #3e2414;
      }

      .cls-57 {
        fill: #e7b18c;
      }

      .cls-58 {
        fill: #382011;
      }

      .cls-59 {
        fill: #321e12;
      }

      .cls-60 {
        fill: #29160d;
      }

      .cls-61 {
        fill: #482b18;
      }

      .cls-62 {
        fill: #402515;
      }

      .cls-63 {
        fill: #231c13;
      }

      .cls-64 {
        fill: #251d13;
      }

      .cls-65 {
        fill: #201c14;
      }

      .cls-9 {
        stroke: #86a5a8;
        stroke-dasharray: 0 0 11.86 11.86;
        stroke-linecap: round;
        stroke-width: 3px;
      }

      .cls-66 {
        fill: #281d13;
      }

      .cls-67 {
        fill: #1d1d1b;
      }

      .cls-68 {
        fill: #b05144;
      }

      .cls-69 {
        fill: #2b1d13;
      }
    </style>
    <clipPath id="clippath">
      <circle class="cls-48" cx="141.62" cy="141.9" r="128.28"/>
    </clipPath>
    <clipPath id="clippath-1">
      <path class="cls-48" d="m168.34,136.42s0,0,0,0c-2.14-.01-4.26-.3-6.39-.32-.6,0-1.21-.02-1.81,0-.16.05-.32.1-.48.16-.85.31-1.71.66-2.6.83-.33.27-.67.55-1.05.76-.19.1-.36.1-.51.03-1.34,1.56-2.11,3.56-2,5.7.24,4.67,4.55,8.25,9.61,7.98,5.07-.26,8.98-4.26,8.73-8.94-.13-2.55-1.48-4.77-3.5-6.22Z"/>
    </clipPath>
    <clipPath id="clippath-2">
      <path class="cls-48" d="m101.97,136.8s0,0,0,0c-2.14-.01-4.26-.3-6.39-.32-.6,0-1.21-.02-1.81,0-.16.05-.32.1-.48.16-.85.31-1.71.66-2.6.83-.33.27-.67.55-1.05.76-.19.1-.36.1-.51.03-1.34,1.56-2.11,3.56-2,5.7.24,4.67,4.55,8.25,9.61,7.98,5.07-.26,8.98-4.26,8.73-8.94-.13-2.55-1.48-4.77-3.5-6.22Z"/>
    </clipPath>
  </defs>
  <g class="cls-44">
    <g>
      <circle class="cls-3" cx="141.62" cy="141.9" r="128.28"/>
      <g>
        <g>
          <path class="cls-24" d="m186.3,190.18c-.17-.51-.34-1.03-.5-1.55-8.39,5.66-17.87,9.23-27.66,10.88-.3.05-.61.1-.91.15-.04,1.32-.04,2.62-.01,3.9.01.49.03.99.05,1.47,0,.04,0,.07,0,.11.3-.11.59-.21.89-.31,7.62-2.56,15.72-3.33,24.1-2.29,3.31.42,6.43,1.65,9.09,3.59-1.37-5.29-3.26-10.7-5.06-15.95Zm58.83,2.45c-1.07-15.58-6.83-25.31-15.27-43.33-2.21-4.71-2.93-9.99-2.08-15.12,1.88-11.24,3.25-19.24-3.25-22.98-.07-.04-.05-.14.02-.16,10.51-1.88,18.65-7.36,19.66-18.83.1-1.14-.93-2.05-2.05-1.83-34.94,6.65-46.62-44.85-92.82-27.47-.36.13-.74.14-1.1.04-16.66-5.2-37.56-7.6-59.65,15.79-25.13,28.91-11.49,37.38-24.73,63.21-2.92,6.41-16.13,19.5-26.45,30.69-3.65,3.96-5.99,8.96-6.62,14.31-1.13,9.6.74,16.41,10.05,26.73.06.06.16.01.15-.07-1.93-12.72,4.35-21.13,10.28-28.17.05-.07.16,0,.14.08-9.36,37.05.06,59.44,25.75,69.13.28.1.57.21.86.31.28.1.57.21.86.3,1.55.54,3.16,1.03,4.83,1.48l128.87,3.26c.57-.63,1.15-1.26,1.71-1.88.24-.26.47-.52.71-.78.23-.26.46-.52.69-.77,17.67-19.89,30.71-40.61,29.43-63.92Zm-115.09,23.92c-.62-1.41.02-3.05,1.43-3.72.32-.15.66-.3,1.02-.45-.57,2.09-1.25,3.83-2.01,5.09-.17-.32-.31-.62-.44-.92Zm95.79-56.67c-4.45,9.17-12.63,12.76-23.4,12.48-3.27,4.6-6.99,8.6-11.05,12.04.03,1.29.14,2.52.31,3.71.37,2.6,1.1,5.14,2.02,7.6,1.92,5.13,2.64,9.88,2.14,14.95-.04.48-.1.96-.17,1.45-.39,2.7-1.11,5.52-2.17,8.53-.04.1-.18.07-.17-.03.14-4.15-.52-8.56-1.62-13.07-.11-.47-.23-.94-.36-1.42-1.37-5.29-3.26-10.7-5.06-15.95-.17-.51-.34-1.03-.5-1.55-8.39,5.66-17.87,9.23-27.66,10.88-.3.05-.61.1-.91.15-.04,1.32-.04,2.62-.01,3.9.01.49.03.99.05,1.47,0,.04,0,.07,0,.11.01.32.03.63.05.94.15,2.3.42,4.5.83,6.5.11.53.23,1.05.36,1.56.07.26.13.51.21.76.08.26.16.52.24.77.14.46.3.91.47,1.34.21.54.43,1.06.68,1.54.19.38.39.74.59,1.09.08.14.18.28.27.42.02.03.04.07.06.1.08.13.17.26.27.39h0c-.14.29-.31.56-.51.82-3.07,3.96-8.38,9.32-14.23,14.23-6.46-5.77-13-11.55-16.13-16.45.2-.24.39-.49.58-.78.45-.67.86-1.47,1.24-2.38.11-.26.22-.53.32-.81.07-.18.13-.36.19-.53.12-.36.24-.74.36-1.12.07-.21.13-.43.19-.66.06-.21.11-.42.17-.64.02-.08.04-.17.06-.25h0c.08-.35.17-.71.25-1.07.43-1.92.75-4.02.94-6.18.02-.3.05-.6.07-.91.03-.43.05-.87.07-1.3.02-.35.03-.7.04-1.05,0-.34.01-.69.01-1.03v-.43c-.3-.04-.6-.08-.91-.12-20.64-2.78-39.82-13.37-50.17-29.99l-.54,1.58c-.66,1.94-2.94,2.75-4.71,1.71-1.09-.63-2.15-1.47-3.17-2.55-3.08-3.22-4.68-7.57-4.78-12.03-.04-1.62.04-3.3.22-5.03.18-1.72,2.02-2.74,3.58-1.99l2.55,1.22c-1-5.03-1.29-9.98-.91-14.8h0c1.55-19.45,14.14-36.77,36.39-48.31l.39-3.47,8.88-.43c21.39-6.55,46.84,1.76,63.61,16.93,9.44,8.54,15.72,19.61,17.61,34.19.08.6.15,1.21.21,1.83-1.74,11.92.24,14.3-.52,20.87-.01.11-.02.24-.04.36,0,.04.02.07.05.09.05.03.13.02.16-.05,3.04-8.5,7.79-12.02,13.34-13.22,2.22-.48,4.56.12,6.23,1.66,1.98,1.82,3.11,4.05,3.75,5.83.66,1.85.56,3.88-.3,5.64Zm-39.53,30.29c-.17-.51-.34-1.03-.5-1.55-8.39,5.66-17.87,9.23-27.66,10.88-.3.05-.61.1-.91.15-.04,1.32-.04,2.62-.01,3.9.01.49.03.99.05,1.47,0,.04,0,.07,0,.11.3-.11.59-.21.89-.31,7.62-2.56,15.72-3.33,24.1-2.29,3.31.42,6.43,1.65,9.09,3.59-1.37-5.29-3.26-10.7-5.06-15.95Z"/>
          <path class="cls-60" d="m212.97,260.91h-.41s-128.98-3.27-128.98-3.27l-.1-.03c-1.78-.48-3.38-.97-4.9-1.5-.28-.09-.58-.2-.87-.31-.16-.06-.33-.12-.5-.18l-.36-.13c-25.84-9.75-34.96-32.18-27.16-66.71-5.19,6.6-9.41,14.12-7.81,24.68.06.43-.15.84-.54,1.03-.38.19-.84.12-1.15-.18-8.96-9.93-11.56-16.86-10.31-27.48.65-5.54,3.02-10.66,6.85-14.82,2.23-2.42,4.64-4.97,6.96-7.43,8.41-8.91,17.1-18.13,19.33-23.02,5.32-10.37,6.25-17.87,7.15-25.13,1.34-10.76,2.6-20.92,17.72-38.31,22.61-23.95,44.27-21.16,60.61-16.06.16.05.35.04.52-.02,26.18-9.85,41.28,1.88,55.89,13.23,11.3,8.78,21.97,17.07,37.07,14.2.82-.16,1.65.07,2.27.63.62.56.93,1.35.85,2.17-.88,10.08-7.27,16.7-18.5,19.26,5.15,4.33,3.84,12.16,2.08,22.65l-.02.13c-.83,4.98-.14,10.02,2,14.59,1.25,2.66,2.43,5.14,3.55,7.48,6.55,13.68,10.87,22.72,11.8,36.17h0c1.43,26.04-15.1,48.19-29.66,64.59-.24.26-.47.52-.69.77-.22.25-.43.48-.65.72l-.06.07c-.52.57-1.04,1.14-1.56,1.71l-.43.48Zm-129.13-5.08l128.35,3.25c.48-.53.96-1.05,1.43-1.57l.06-.07c.21-.23.42-.47.64-.71.23-.26.47-.53.71-.79,21.27-23.95,30.28-43.46,29.19-63.25-.9-13.1-5.16-22.02-11.62-35.51-1.12-2.35-2.31-4.83-3.56-7.5-2.3-4.9-3.04-10.31-2.15-15.65l.02-.13c1.87-11.14,3.1-18.5-2.83-21.92-.38-.24-.56-.66-.48-1.06.08-.41.4-.71.81-.77,11.66-2.08,18.03-8.15,18.9-18.02.03-.35-.15-.57-.26-.67-.2-.18-.46-.25-.72-.2-15.9,3.02-26.89-5.51-38.52-14.55-14.21-11.04-28.91-22.46-54.14-12.96-.55.2-1.13.22-1.68.06-16.83-5.25-36.96-7.51-58.73,15.55-14.73,16.95-15.96,26.84-17.26,37.31-.92,7.41-1.88,15.07-7.32,25.69-2.33,5.12-10.74,14.04-19.65,23.47-2.32,2.46-4.72,5.01-6.95,7.42-3.57,3.87-5.78,8.65-6.39,13.8-.96,8.14.09,14.55,8.11,24.06-.81-11.39,4.85-19.21,10.77-26.26.25-.33.74-.46,1.16-.27.43.2.66.65.56,1.11-9.1,36.01-.86,58.27,25.19,68.1l.36.13c.16.06.32.12.48.18.28.1.56.2.85.3,1.46.51,2.98.98,4.68,1.44Zm-31.86-69.86s-.04.05-.06.07c.02-.02.04-.04.06-.07Zm172.77-74.05s-.02,0-.04,0c.01,0,.02,0,.04,0Zm-78.23,124.87l-1.17-1.05c-6.2-5.53-12.6-11.26-15.71-16.12l-.36-.56.43-.51c.06-.07.12-.15.18-.23l-.23-.43c-.18-.34-.33-.66-.47-.98-.81-1.86.01-4.01,1.87-4.9.33-.16.69-.31,1.06-.47l.62-.26.07-.23c.03-.12.05-.24.08-.35.43-1.92.74-3.96.92-6.07.02-.29.05-.59.06-.88.03-.44.05-.86.07-1.29.02-.35.03-.69.04-1.03,0-.22,0-.43.01-.65-.04,0-.08-.01-.12-.02-21.07-2.84-39.53-13.57-49.8-28.84-.43,1.09-1.29,1.93-2.39,2.34-1.18.44-2.48.32-3.58-.32-1.18-.69-2.32-1.6-3.37-2.7-3.13-3.27-4.92-7.76-5.03-12.64-.04-1.66.04-3.39.22-5.14.12-1.1.76-2.08,1.73-2.62.97-.54,2.14-.58,3.14-.1l.95.45c-.74-4.47-.95-8.92-.6-13.26v-.04c1.6-19.98,14.53-37.3,36.45-48.82l.42-3.76,9.53-.47c20.34-6.17,46.2.71,64.37,17.15,10.21,9.24,16.07,20.61,17.9,34.74.08.61.15,1.23.21,1.86v.11s0,.11,0,.11c-1.02,6.96-.75,10.6-.51,13.8.07.99.14,1.96.17,2.97,2.83-5.39,6.86-8.59,12.24-9.75,2.54-.55,5.17.16,7.04,1.88,2.18,2.01,3.37,4.47,3.99,6.19.74,2.07.62,4.38-.33,6.34h0c-4.27,8.8-12.27,13.19-23.76,13-3.08,4.27-6.64,8.14-10.59,11.53.04,1.05.13,2.1.29,3.18.33,2.3.97,4.72,1.97,7.41,2,5.33,2.7,10.21,2.19,15.35-.04.48-.1.98-.17,1.48-.39,2.73-1.11,5.57-2.21,8.71-.18.49-.67.75-1.15.65-.48-.1-.81-.53-.78-1.03.13-3.66-.4-7.86-1.6-12.8-.09-.36-.18-.72-.27-1.09-2.47-1.74-5.37-2.86-8.41-3.24-8.24-1.03-16.22-.27-23.7,2.25-.08.03-.16.06-.24.08,0,.07,0,.15.01.22.15,2.37.43,4.52.82,6.42.1.51.22,1.02.35,1.51.06.25.13.5.2.73l.23.76c.13.43.29.86.45,1.28.21.54.42,1.02.65,1.47.17.34.35.68.56,1.02.08.13.16.25.24.37l.09.14c.05.08.12.18.19.27l.4.4-.28.59c-.16.32-.36.65-.61.97-3.2,4.14-8.57,9.51-14.37,14.37l-.6.5Zm-15-17.61c3.1,4.55,9.16,9.97,15.04,15.21h0c5.47-4.64,10.49-9.68,13.5-13.58.06-.07.11-.15.16-.22l-.04-.06c-.08-.11-.18-.27-.27-.43-.22-.38-.43-.76-.62-1.14-.25-.5-.48-1.03-.71-1.62-.18-.45-.34-.92-.49-1.4l-.24-.78c-.08-.26-.15-.53-.22-.8-.14-.52-.26-1.06-.37-1.6-.39-1.91-.67-4.04-.83-6.35l-.07.03v-1.27s0-.08,0-.11h0v-.02h0c-.02-.45-.04-.95-.05-1.45-.01-.61-.02-1.2-.02-1.77,0-.75.01-1.47.03-2.18l.02-.75.85-.14c.26-.04.52-.08.78-.13,10.09-1.7,19.28-5.32,27.31-10.74l1.02-.69.35,1.18c.15.51.32,1.02.49,1.52l.46,1.34c1.65,4.82,3.36,9.8,4.62,14.67.05.18.09.35.14.53l.5,1.92-.04-.03c.61,2.64,1.02,5.07,1.24,7.33.31-1.26.55-2.48.72-3.67.06-.47.12-.94.16-1.4.48-4.86-.18-9.48-2.08-14.55-1.05-2.81-1.73-5.35-2.07-7.79-.18-1.3-.29-2.55-.32-3.82v-.43s.32-.28.32-.28c4.09-3.46,7.76-7.45,10.9-11.87l.28-.39h.48c11.12.29,18.52-3.62,22.56-11.96.74-1.53.83-3.33.26-4.94-.55-1.52-1.6-3.71-3.51-5.47-1.44-1.32-3.47-1.86-5.43-1.44-6.04,1.31-10.07,5.32-12.68,12.64-.08.26-.3.5-.59.61-.29.11-.63.08-.89-.09-.29-.18-.48-.5-.48-.86v-.14c.02-.09.03-.18.04-.26v-.06c.3-2.59.16-4.49,0-6.7-.24-3.28-.52-7,.51-14.09-.06-.57-.12-1.13-.2-1.68-1.78-13.7-7.45-24.7-17.32-33.64-17.75-16.06-42.96-22.78-62.74-16.73l-.22.04-8.11.4-.36,3.18-.43.22c-21.59,11.21-34.34,28.09-35.9,47.54v.04c-.38,4.75-.08,9.65.89,14.55l.35,1.77-4.18-2c-.48-.23-1.01-.21-1.48.05-.46.26-.76.7-.81,1.22-.18,1.68-.25,3.33-.21,4.91.1,4.42,1.71,8.48,4.53,11.43.94.98,1.94,1.78,2.98,2.39.62.36,1.36.43,2.03.18.65-.24,1.15-.75,1.37-1.41l1.16-3.38,1.01,1.62c9.75,15.65,28.26,26.7,49.53,29.57.3.04.6.08.89.12l.8.09v1.23c0,.35,0,.7-.01,1.05,0,.36-.02.72-.04,1.08-.02.43-.04.88-.07,1.32-.02.3-.04.61-.07.91-.19,2.19-.51,4.31-.95,6.3-.08.36-.16.73-.25,1.08l-.19.69c-.02.08-.04.16-.07.24-.06.22-.12.46-.19.68-.12.39-.24.77-.37,1.14l-.1.28c-.03.09-.07.19-.1.28-.1.28-.22.57-.33.84-.43,1.01-.86,1.84-1.32,2.54-.07.11-.14.22-.22.32Zm62.72,1.43s0,.02,0,.03c0-.01,0-.02,0-.03Zm-19.15-19.43c2.4,0,4.83.15,7.29.46,2.64.33,5.19,1.17,7.49,2.46-1.07-3.79-2.37-7.64-3.66-11.39,0-.01,0-.03-.01-.04-.02-.05-.03-.09-.05-.14,0,0,0-.01,0-.02-.02-.05-.03-.09-.05-.13-.01-.04-.03-.09-.04-.13,0-.01,0-.03-.01-.04-.04-.13-.09-.26-.13-.39l-.46-1.34c-.05-.14-.1-.28-.14-.43-8.01,5.2-17.09,8.68-27.01,10.36-.06.01-.12.02-.17.03,0,.45-.01.91-.01,1.38,0,.56,0,1.13.02,1.73,0,.11,0,.23,0,.34,5.44-1.8,11.12-2.7,16.96-2.7Zm26.86-41.53s-.02.04-.02.07c0-.02.02-.04.02-.07Z"/>
        </g>
        <path class="cls-60" d="m89.68,244.9c-8.17-31.24-9.5-48.71-4.25-78.19l112.99-7.15c8.86,25.73,9.9,47.56-.04,85.11l-108.69.24Z"/>
        <path class="cls-24" d="m132.49,212.38c-.57,2.09-1.25,3.83-2.01,5.09-.17-.32-.31-.62-.44-.92-.62-1.41.02-3.05,1.43-3.72.32-.15.66-.3,1.02-.45Z"/>
        <path class="cls-52" d="m130.43,219.31l-.75-1.41c-.18-.34-.33-.66-.47-.98-.81-1.85.01-4.01,1.87-4.9.33-.16.69-.31,1.06-.47l1.71-.73-.49,1.8c-.6,2.21-1.31,4-2.11,5.32l-.83,1.37Z"/>
        <path class="cls-57" d="m83.73,169.85l-.54,1.58c-.66,1.94-2.94,2.75-4.71,1.71-1.09-.63-2.15-1.47-3.17-2.55-3.08-3.22-4.68-7.57-4.78-12.03-.04-1.62.04-3.3.22-5.03.18-1.72,2.02-2.74,3.58-1.99l2.55,1.22c1.3,6.23,3.66,11.95,6.87,17.08Z"/>
        <path class="cls-19" d="m80.14,174.5c-.74,0-1.47-.2-2.12-.58-1.18-.69-2.32-1.6-3.37-2.7-3.13-3.27-4.92-7.76-5.03-12.64-.04-1.65.04-3.38.22-5.14.12-1.1.76-2.08,1.73-2.62.97-.54,2.14-.58,3.14-.1l2.95,1.41.09.44c1.25,5.96,3.52,11.61,6.75,16.79l.23.37-.68,1.99c-.4,1.17-1.29,2.09-2.45,2.52-.47.18-.96.26-1.45.26Zm-6.91-22.3c-.27,0-.54.07-.78.21-.46.26-.76.7-.81,1.22-.18,1.68-.25,3.33-.21,4.91.1,4.42,1.71,8.48,4.53,11.43.94.98,1.94,1.79,2.98,2.39.62.36,1.36.43,2.03.18.65-.24,1.15-.75,1.37-1.41l.4-1.18c-3.15-5.13-5.39-10.7-6.66-16.57l-2.14-1.03c-.22-.11-.46-.16-.69-.16Z"/>
        <path class="cls-33" d="m90.45,178.56c-1.06-1.12-2.06-2.28-3.02-3.48.25.26.48.49.7.73.55.6,1.19,1.32,1.78,2.11.13.17.27.33.41.49.04.05.08.1.13.15Z"/>
        <path class="cls-57" d="m185.7,188.6c-8.65,5.83-18.46,9.44-28.57,11.03-7.39,1.16-14.94,1.25-22.32.33-16.48-2.04-32.11-9.04-43.14-20.14.31-.11.62-.24.92-.37-.08-.08-.16-.15-.24-.23-.08-.08-.15-.16-.23-.23-2.92-2.96-5.48-6.18-7.63-9.62-2.12-3.4-3.83-7.01-5.1-10.78-.04-.1-.07-.21-.1-.31-.04-.1-.07-.21-.1-.31-.25.21-.49.43-.73.66-.64-1.9-1.17-3.87-1.59-5.88-1-5.03-1.29-9.98-.91-14.8h0c.32-.8.71-1.65,1.2-2.59,4.42-8.54,11.32-15.51,19.65-20.32.68-.39,1.36-.78,2.05-1.16,4.31-2.41,8.27-5.37,11.75-8.83,11.98-5.68,17.41-9.03,23.07-7.04,7.78-.64,13.16,2.43,21.41,6.87,1.86,1.98,3.94,3.75,6.2,5.29,7.22,4.95,13.5,8.46,18.71,12.37,3.87,2.91,6.77,6.96,8.12,11.6,1.95,6.72.07,11.86-2.68,21.25-3.18,10.86-3.07,22.41.28,33.19Z"/>
        <path class="cls-19" d="m186.96,153.39c2.41-8.15,3.87-13.08,2.01-19.49-1.37-4.72-4.36-9.01-8.44-12.07-2.96-2.22-6.31-4.34-9.85-6.6-2.82-1.79-5.74-3.64-8.89-5.8-2.21-1.51-4.25-3.25-6.05-5.17l-.1-.11-.98-.52c-7.66-4.12-13.2-7.11-20.88-6.53-5.2-1.74-10.2.68-19.18,5.03-1.36.66-2.82,1.36-4.39,2.11l-.14.07-.11.11c-3.39,3.37-7.27,6.29-11.55,8.68-.69.39-1.38.78-2.06,1.17-8.66,5-15.58,12.16-20,20.69-.5.96-.91,1.83-1.24,2.66l-.07.17v.14c-.39,4.91-.08,9.96.92,15.02,1.29,6.17,3.64,12.01,6.99,17.37,10.2,16.37,29.54,27.79,51.73,30.53,3.39.42,6.78.63,10.16.63,4.18,0,8.33-.33,12.42-.97,10.7-1.68,20.44-5.44,28.94-11.17l.56-.37-.2-.64c-3.32-10.67-3.42-21.96-.28-32.67.23-.78.45-1.54.67-2.26Zm-95.45,26.49l-.33.11-.07-.34c-.04-.16-.09-.31-.17-.44-.13-.21-.28-.41-.45-.61-.01-.01-.02-.03-.04-.05-.04-.05-.08-.1-.13-.15-.14-.16-.28-.33-.41-.49-.59-.79-1.23-1.51-1.78-2.11-.22-.24-.45-.47-.7-.73-.19-.2-.4-.41-.63-.64l-.05-.06c-.18-.31-.43-.6-.68-.85-.05-.05-.1-.1-.14-.16l-.13-.18-.05-.12c-.09-.2-.17-.39-.25-.54-.04-.07-.08-.14-.11-.21-.49-.69-.95-1.38-1.41-2.09-.01-.02-.02-.04-.04-.05-.28-.31-.6-.59-.91-.84l-.08-.09c-.3-.57-.58-1.12-.83-1.68-.56-1.23-1.23-2.49-2.11-3.98-.82-1.39-1.61-2.9-1.79-4.57v-.14s.09-.1.09-.1c.05-.05.1-.1.14-.14.24-.24.48-.45.73-.66-.57-1.77-1.06-3.56-1.44-5.39-.96-4.86-1.27-9.71-.9-14.42.3-.74.66-1.51,1.11-2.38,4.26-8.22,10.93-15.13,19.3-19.95.68-.39,1.35-.78,2.03-1.16,4.38-2.44,8.36-5.43,11.83-8.86,1.53-.72,2.94-1.41,4.26-2.05,8.94-4.32,13.43-6.49,17.98-4.89l.18.07h.19c7.25-.61,12.34,2.14,20.06,6.29l.72.39c1.86,1.97,3.96,3.75,6.24,5.31,3.17,2.17,6.11,4.03,8.94,5.83,3.51,2.23,6.83,4.33,9.73,6.51,3.77,2.83,6.53,6.78,7.79,11.13,1.71,5.9.31,10.63-2.01,18.46-.22.73-.44,1.49-.67,2.27-3.17,10.84-3.14,22.25.09,33.07-8.15,5.38-17.44,8.91-27.65,10.52-7.23,1.14-14.65,1.25-22.07.33-16.72-2.07-31.77-9.15-42.32-19.6-.3.13-.61.26-.92.37-.05.02-.11.04-.17.06Z"/>
        <path class="cls-57" d="m225.73,159.86c-4.45,9.17-12.63,12.76-23.4,12.48-3.27,4.6-6.99,8.6-11.05,12.04-.05-1.59.02-3.26.2-5.09.37-3.66,1.18-7.26,2.3-10.76,3.28-10.28,5.03-16.61,9.06-31.67.08.6.15,1.21.21,1.83-1.74,11.92.24,14.3-.52,20.87-.01.11-.02.24-.04.36,0,.04-.01.09-.02.14,0,.04.05.05.05.01,0-.02,0-.04.01-.06.05.03.13.02.16-.05,3.04-8.5,7.79-12.02,13.34-13.22,2.22-.48,4.56.12,6.23,1.66,1.98,1.82,3.11,4.05,3.75,5.83.66,1.85.56,3.88-.3,5.64Z"/>
        <path class="cls-19" d="m190.43,186.28l-.06-1.87c-.05-1.63.02-3.33.2-5.2.36-3.54,1.14-7.23,2.34-10.95,3.33-10.44,5.13-16.96,9.05-31.62l1.15-4.3.62,4.41c.09.62.15,1.24.22,1.87v.11s0,.11,0,.11c-1.02,6.97-.75,10.6-.51,13.8.07.99.14,1.96.17,2.97,2.83-5.39,6.86-8.59,12.24-9.75,2.54-.54,5.17.16,7.04,1.88,1.72,1.59,3.1,3.73,3.99,6.19.74,2.07.62,4.38-.33,6.34h0c-4.19,8.64-11.96,13.01-23.11,13.01-.22,0-.43,0-.65,0-3.16,4.39-6.84,8.36-10.92,11.81l-1.43,1.21Zm11.02-40.79c-2.51,9.26-4.19,15.07-6.82,23.31-1.16,3.61-1.92,7.16-2.26,10.58-.1,1.05-.17,2.05-.2,3.01,3.5-3.15,6.65-6.7,9.41-10.57l.28-.39h.48c11.12.3,18.52-3.62,22.56-11.96h0c.74-1.53.83-3.33.26-4.94-.55-1.52-1.61-3.71-3.51-5.47-1.44-1.32-3.47-1.86-5.43-1.44-6.04,1.31-10.07,5.32-12.68,12.64-.04.11-.1.22-.18.32l-.07.51-1.82-.23.12-1.09c.01-.1.03-.21.04-.31.3-2.6.16-4.5,0-6.71-.15-2.03-.31-4.22-.17-7.27Z"/>
        <path class="cls-57" d="m161.29,220.55c-.14.28-.31.56-.51.81-3.07,3.96-8.38,9.32-14.23,14.23-6.46-5.77-13-11.55-16.13-16.45.2-.24.39-.49.58-.78,1.01-1.53,1.88-3.77,2.55-6.4.18-.08.37-.14.56-.22l.46-.17c.04-.16.07-.31.11-.48.45-1.99.77-4.12.95-6.3.02-.29.05-.58.07-.87l-.86-.11s-.03,0-.04,0c.09-1.27.13-2.54.12-3.81,7.38.92,14.93.83,22.32-.33-.05,1.86-.04,3.7.05,5.48-.08.03-.17.06-.26.09l-.63.23c.01.23.02.46.04.68.16,2.41.45,4.64.85,6.63l.06.3.22.2c.3.27.63.56.97.88.54,2.11,1.26,3.98,2.18,5.5.19.31.39.62.59.9h0Z"/>
        <path class="cls-19" d="m161.29,220.54c-.09-.13-.18-.25-.27-.39-.02-.03-.04-.07-.06-.1-.09-.13-.18-.27-.27-.42-.21-.34-.4-.71-.59-1.09-.24-.49-.46-1-.68-1.54-.17-.43-.33-.87-.47-1.34-.08-.25-.16-.51-.24-.77-.07-.25-.14-.5-.21-.76-.34-.32-.67-.62-.97-.88l-.22-.2c.67,3.1,1.64,5.62,2.89,7.53-.05.07-.1.14-.16.22-3.01,3.9-8.03,8.94-13.5,13.58h0c-2.29-2.05-4.61-4.12-6.77-6.15-.36-.34-.71-.68-1.06-1.01-.53-.51-1.04-1.01-1.54-1.51-.49-.5-.98-1-1.45-1.48-.18-.19-.36-.39-.54-.57-.15-.16-.29-.31-.43-.46-.28-.3-.54-.6-.8-.89-.28-.32-.54-.63-.8-.95-.25-.3-.48-.59-.7-.87-.16-.21-.32-.42-.47-.63-.17-.22-.33-.45-.48-.67,1.21-1.69,2.27-4.35,3.04-7.61l-.46.17c-.19.07-.38.14-.56.22-.36.13-.72.28-1.05.42-.57,2.09-1.25,3.83-2.01,5.09.15.28.32.58.51.88-.19.29-.38.55-.58.78,3.13,4.91,9.68,10.69,16.13,16.45,5.85-4.91,11.17-10.26,14.23-14.23.2-.26.37-.53.51-.81h0Zm0,0c-.09-.13-.18-.25-.27-.39-.02-.03-.04-.07-.06-.1-.09-.13-.18-.27-.27-.42-.21-.34-.4-.71-.59-1.09-.24-.49-.46-1-.68-1.54-.17-.43-.33-.87-.47-1.34-.08-.25-.16-.51-.24-.77-.07-.25-.14-.5-.21-.76-.34-.32-.67-.62-.97-.88l-.22-.2c.67,3.1,1.64,5.62,2.89,7.53-.05.07-.1.14-.16.22-3.01,3.9-8.03,8.94-13.5,13.58h0c-2.29-2.05-4.61-4.12-6.77-6.15-.36-.34-.71-.68-1.06-1.01-.53-.51-1.04-1.01-1.54-1.51-.49-.5-.98-1-1.45-1.48-.18-.19-.36-.39-.54-.57-.15-.16-.29-.31-.43-.46-.28-.3-.54-.6-.8-.89-.28-.32-.54-.63-.8-.95-.25-.3-.48-.59-.7-.87-.16-.21-.32-.42-.47-.63-.17-.22-.33-.45-.48-.67,1.21-1.69,2.27-4.35,3.04-7.61l-.46.17c-.19.07-.38.14-.56.22-.66,2.63-1.53,4.87-2.55,6.4-.19.29-.38.55-.58.78,3.13,4.91,9.68,10.69,16.13,16.45,5.85-4.91,11.17-10.26,14.23-14.23.2-.26.37-.53.51-.81h0Zm-27.4-16.83c.3.02.6.05.9.09.01,0,.03,0,.04,0l.86.11c.07-.98.11-1.96.13-2.91,6.88.77,13.76.67,20.49-.3-.02,1.62,0,3.22.08,4.74l.63-.23c.08-.03.18-.06.26-.09.3-.11.59-.21.89-.31-.07-1.65-.08-3.38-.04-5.14v-.17s.03-.91.03-.91l-1.07.17c-7.23,1.14-14.65,1.25-22.07.33l-1.03-.13v.91s0,.13,0,.13c.01,1.21-.03,2.46-.11,3.72Zm27.4,16.83c-.09-.13-.18-.25-.27-.39-.02-.03-.04-.07-.06-.1-.09-.13-.18-.27-.27-.42-.21-.34-.4-.71-.59-1.09-.24-.49-.46-1-.68-1.54-.17-.43-.33-.87-.47-1.34-.08-.25-.16-.51-.24-.77-.07-.25-.14-.5-.21-.76-.34-.32-.67-.62-.97-.88l-.22-.2c.67,3.1,1.64,5.62,2.89,7.53-.05.07-.1.14-.16.22-3.01,3.9-8.03,8.94-13.5,13.58h0c-2.29-2.05-4.61-4.12-6.77-6.15-.36-.34-.71-.68-1.06-1.01-.53-.51-1.04-1.01-1.54-1.51-.49-.5-.98-1-1.45-1.48-.18-.19-.36-.39-.54-.57-.15-.16-.29-.31-.43-.46-.28-.3-.54-.6-.8-.89-.28-.32-.54-.63-.8-.95-.25-.3-.48-.59-.7-.87-.16-.21-.32-.42-.47-.63-.17-.22-.33-.45-.48-.67,1.21-1.69,2.27-4.35,3.04-7.61l-.46.17c-.19.07-.38.14-.56.22-.36.13-.72.28-1.05.42-.57,2.09-1.25,3.83-2.01,5.09.15.28.32.58.51.88-.19.29-.38.55-.58.78,3.13,4.91,9.68,10.69,16.13,16.45,5.85-4.91,11.17-10.26,14.23-14.23.2-.26.37-.53.51-.81h0Zm-2.38-8.86c.02.14.05.29.08.43h0c-.03-.14-.06-.29-.08-.43Zm3.08,8.28c-.1-.15-.21-.3-.3-.46-.27-.42-.52-.86-.76-1.35-.39-.78-.74-1.66-1.06-2.62-.42-.48-.89-.95-1.35-1.39-.34-.32-.67-.62-.97-.88l-.22-.2c.67,3.1,1.64,5.62,2.89,7.53-.05.07-.1.14-.16.22-3.01,3.9-8.03,8.94-13.5,13.58h0c-2.29-2.05-4.61-4.12-6.77-6.15-.36-.34-.71-.68-1.06-1.01-.53-.51-1.04-1.01-1.54-1.51-.49-.5-.98-1-1.45-1.48-.18-.19-.36-.39-.54-.57-.15-.16-.29-.31-.43-.46-.28-.3-.54-.6-.8-.89-.28-.32-.54-.63-.8-.95-.25-.3-.48-.59-.7-.87-.16-.21-.32-.42-.47-.63-.17-.22-.33-.45-.48-.67,1.21-1.69,2.27-4.35,3.04-7.61l-.46.17c-.19.07-.38.14-.56.22-.36.13-.72.28-1.05.42-.57,2.09-1.25,3.83-2.01,5.09-.18.31-.37.59-.56.84-.06.08-.13.16-.19.24l-.43.5h0s.36.57.36.57c3.1,4.86,9.5,10.58,15.7,16.11l1.18,1.05.6-.5c5.8-4.86,11.17-10.23,14.37-14.37.25-.32.45-.65.6-.95.05-.11.1-.21.15-.32l.13-.28-.4-.4Zm-28.25-14.44c-.01.11-.02.23-.04.34.02-.11.03-.23.04-.34h0Zm-.73,4.69h0c.05-.24.1-.48.14-.72-.04.24-.09.48-.14.72Z"/>
        <path class="cls-68" d="m218.43,270.22H70.61c2.34-5.22,4.77-10.34,7.4-15.27,4.05-7.61,8.56-14.76,13.9-21.07.18-.21.33-.45.44-.71,1.59-3.63,3.07-6.34,4.4-7.74,3.84-5.62,7.96-8.71,12.26-10.4.43-.17.78-.53.92-.98l1.08-3.55c.31-1.01,1.07-1.82,2.07-2.18,7.72-2.84,14.7-4.23,20.74-3.7v.02c-.02.3-.05.59-.09.89h0c-.01.11-.02.23-.04.34,0,.11-.02.23-.04.34-.06.52-.13,1.03-.21,1.53-.07.45-.14.9-.22,1.34-.02.14-.05.28-.08.42-.04.24-.09.48-.14.72h0c-.02.16-.06.32-.1.48-.04.2-.09.39-.13.59-.59.24-1.15.48-1.69.74-1.83.87-2.69,3.04-1.88,4.9.19.45.43.92.71,1.39.15.27.31.55.49.83,3.13,4.91,9.68,10.69,16.13,16.45,5.85-4.91,11.17-10.26,14.23-14.23.2-.26.37-.53.51-.81.17-.34.3-.69.39-1.05.37-1.51.03-3.17-1.02-4.42-.39-.47-.84-.94-1.33-1.4-.1-.41-.2-.83-.29-1.27-.02-.09-.04-.19-.05-.28h0c-.03-.15-.05-.3-.08-.44-.05-.27-.1-.55-.14-.83-.07-.43-.13-.87-.19-1.33-.04-.31-.08-.63-.11-.96-.03-.27-.06-.54-.08-.83-.02-.15-.03-.3-.04-.45-.02-.19-.03-.39-.05-.59-.02-.22-.04-.45-.05-.68,0-.08-.01-.17-.01-.26,8.07-2.76,16.1-3.31,23.94-2.33,3.57.45,6.87,1.89,9.56,4.11,1.1,4.51,1.77,8.92,1.62,13.07,0,.1.14.13.17.03,1.06-3.02,1.78-5.83,2.17-8.53.33.53.63,1.08.9,1.65,2,4.17,4.05,10.22,5.96,19.18.08.4.26.78.5,1.11,5.17,7.05,6.19,8.78,7.42,13.8.07.28.19.57.35.81,1.87,2.91,3.28,5.8,4.21,8.66.89,2.72,1.35,5.41,1.39,8.09,0,.43.1.85.29,1.24l1.74,3.57Z"/>
        <path class="cls-52" d="m161.35,214.49c-.73-.86-1.62-1.7-2.37-2.37.02.1.04.19.05.28.09.44.19.86.29,1.27.16.65.34,1.27.53,1.86.04.04.07.08.1.12.6.72.93,1.6.95,2.5.24.48.49.93.76,1.35.1.16.2.31.3.46l.39.39c.73-1.97.36-4.21-1.01-5.85Zm-4.97-9.03h0l.04.68c-.01-.22-.02-.45-.04-.68Zm4.97,9.03c-.73-.86-1.62-1.7-2.37-2.37.02.1.04.19.05.28.09.44.19.86.29,1.27.16.65.34,1.27.53,1.86.04.04.07.08.1.12.6.72.93,1.6.95,2.5.02.5-.05,1.01-.22,1.49-.06.17-.13.34-.22.51-.07.14-.16.29-.26.44-.05.07-.1.14-.16.22-3.01,3.9-8.03,8.94-13.5,13.58h0c-2.29-2.05-4.61-4.12-6.77-6.15-.36-.34-.71-.68-1.06-1.01-.53-.51-1.04-1.01-1.54-1.51-.49-.5-.98-1-1.45-1.48-.18-.19-.36-.39-.54-.57-.15-.16-.29-.31-.43-.46-.28-.3-.54-.6-.8-.89-.28-.32-.54-.63-.8-.95-.25-.3-.48-.59-.7-.87-.16-.21-.32-.42-.47-.63-.17-.22-.33-.45-.48-.67-.12-.18-.24-.36-.35-.53-.06-.1-.13-.2-.18-.3-.19-.3-.36-.6-.51-.88-.17-.32-.31-.62-.44-.92-.62-1.41.02-3.05,1.43-3.72.32-.15.66-.3,1.02-.45.1-.36.19-.72.28-1.1.04-.19.09-.39.13-.59.04-.16.07-.32.1-.48-.84.33-1.6.65-2.31.99-2.3,1.1-3.32,3.77-2.32,6.07.24.56.55,1.16.92,1.78.11.19.23.38.36.57,3.1,4.86,9.5,10.58,15.7,16.11l1.18,1.05.6-.5c5.8-4.86,11.17-10.23,14.37-14.37.25-.32.45-.65.6-.95.05-.11.1-.21.15-.32.04-.1.08-.19.11-.3.73-1.97.36-4.21-1.01-5.85Zm0,0c-.73-.86-1.62-1.7-2.37-2.37.02.1.04.19.05.28.09.44.19.86.29,1.27.16.65.34,1.27.53,1.86.04.04.07.08.1.12.6.72.93,1.6.95,2.5.02.5-.05,1.01-.22,1.49.08.14.17.28.27.42.02.03.04.07.06.1.08.13.17.26.27.39h0c-.14.29-.31.56-.51.82-3.07,3.96-8.38,9.32-14.23,14.23-6.46-5.77-13-11.55-16.13-16.45.2-.24.39-.49.58-.78-.19-.3-.36-.6-.51-.88-.17-.32-.31-.62-.44-.92-.62-1.41.02-3.05,1.43-3.72.32-.15.66-.3,1.02-.45.1-.36.19-.72.28-1.1.04-.19.09-.39.13-.59.04-.16.07-.32.1-.48-.84.33-1.6.65-2.31.99-2.3,1.1-3.32,3.77-2.32,6.07.24.56.55,1.16.92,1.78.11.19.23.38.36.57,3.1,4.86,9.5,10.58,15.7,16.11l1.18,1.05.6-.5c5.8-4.86,11.17-10.23,14.37-14.37.25-.32.45-.65.6-.95.05-.11.1-.21.15-.32.04-.1.08-.19.11-.3.73-1.97.36-4.21-1.01-5.85Zm56.14,51.76c-.12-.25-.19-.53-.19-.84-.04-2.75-.52-5.56-1.44-8.36-.05-.16-.11-.33-.17-.49-.94-2.76-2.34-5.58-4.13-8.37-.1-.16-.19-.36-.24-.55-1.29-5.25-2.41-7.08-7.57-14.11-.17-.24-.29-.5-.34-.77-1.73-8.13-3.76-14.65-6.03-19.39-.28-.58-.59-1.16-.94-1.73l-.6-.98-.71-1.16-.36,2.49c-.17,1.19-.4,2.41-.71,3.67-.25-2.55-.74-5.3-1.47-8.32l-.07-.3-.23-.19c-.31-.25-.62-.49-.94-.72-2.66-1.94-5.77-3.17-9.09-3.59-8.38-1.04-16.48-.28-24.1,2.29.01.32.02.63.05.94,0,.09,0,.17.01.26.01.23.03.45.05.68,7.49-2.6,15.49-3.4,23.76-2.37,3.27.4,6.32,1.69,8.86,3.72,1.15,4.82,1.65,8.92,1.53,12.51-.03.49.3.93.78,1.03.49.1.97-.16,1.15-.65.75-2.14,1.32-4.15,1.73-6.07,2.07,4.55,3.93,10.68,5.55,18.25.11.51.34,1.02.66,1.46,5.06,6.89,6.06,8.51,7.27,13.49.1.38.25.75.46,1.08,1.82,2.84,3.2,5.68,4.1,8.45.05.17.11.34.16.51.75,2.46,1.15,4.92,1.19,7.32,0,.59.14,1.13.38,1.62l1.11,2.26H72.01c2.44-5.39,4.62-9.85,6.8-13.94.02-.04.04-.08.07-.12,4.41-8.28,8.91-15.09,13.72-20.78.23-.27.42-.59.58-.94,1.64-3.73,3.06-6.25,4.23-7.47l.1-.11c3.4-4.97,7.26-8.27,11.84-10.08.7-.28,1.22-.85,1.44-1.56l1.08-3.55c.23-.74.79-1.33,1.52-1.59,8.03-2.95,14.68-4.16,20.33-3.65.04-.3.07-.59.09-.89v-.02c.02-.3.05-.6.07-.9-5.92-.52-12.84.71-21.11,3.75-1.26.46-2.24,1.49-2.63,2.76l-1.07,3.55c-.06.18-.2.33-.39.4-4.9,1.94-9.03,5.43-12.63,10.67-1.33,1.42-2.81,4.01-4.53,7.94-.08.19-.19.36-.31.49-4.92,5.83-9.5,12.77-14,21.23-.02.04-.04.08-.06.11-2.36,4.42-4.7,9.26-7.37,15.22l-.57,1.27h150.66l-2.38-4.88Zm-86.5-47.9c-.19-.3-.36-.6-.51-.88-.17-.32-.31-.62-.44-.92-.62-1.41.02-3.05,1.43-3.72.32-.15.66-.3,1.02-.45.1-.36.19-.72.28-1.1.04-.19.09-.39.13-.59.04-.16.07-.32.1-.48-.84.33-1.6.65-2.31.99-2.3,1.1-3.32,3.77-2.32,6.07.24.56.55,1.16.92,1.78.11.19.23.38.36.57,3.1,4.86,9.5,10.58,15.7,16.11l1.18,1.05.6-.5c5.8-4.86,11.17-10.23,14.37-14.37.25-.32.45-.65.6-.95.05-.11.1-.21.15-.32.04-.1.08-.19.11-.3.73-1.97.36-4.21-1.01-5.85-.73-.86-1.62-1.7-2.37-2.37.02.1.04.19.05.28.09.44.19.86.29,1.27.16.65.34,1.27.53,1.86.04.04.07.08.1.12.6.72.93,1.6.95,2.5.02.5-.05,1.01-.22,1.49.08.14.17.28.27.42.02.03.04.07.06.1.08.13.17.26.27.39h0c-.14.29-.31.56-.51.82-3.07,3.96-8.38,9.32-14.23,14.23-6.46-5.77-13-11.55-16.13-16.45.2-.24.39-.49.58-.78Zm30.36-3.86c-.73-.86-1.62-1.7-2.37-2.37.02.1.04.19.05.28.09.44.19.86.29,1.27.16.65.34,1.27.53,1.86.04.04.07.08.1.12.6.72.93,1.6.95,2.5.02.5-.05,1.01-.22,1.49.08.14.17.28.27.42.02.03.04.07.06.1.08.13.17.26.27.39h0c-.14.29-.31.56-.51.82-3.07,3.96-8.38,9.32-14.23,14.23-6.46-5.77-13-11.55-16.13-16.45.2-.24.39-.49.58-.78-.19-.3-.36-.6-.51-.88-.17-.32-.31-.62-.44-.92-.62-1.41.02-3.05,1.43-3.72.32-.15.66-.3,1.02-.45.1-.36.19-.72.28-1.1.04-.19.09-.39.13-.59.04-.16.07-.32.1-.48-.84.33-1.6.65-2.31.99-2.3,1.1-3.32,3.77-2.32,6.07.24.56.55,1.16.92,1.78.11.19.23.38.36.57,3.1,4.86,9.5,10.58,15.7,16.11l1.18,1.05.6-.5c5.8-4.86,11.17-10.23,14.37-14.37.25-.32.45-.65.6-.95.05-.11.1-.21.15-.32.04-.1.08-.19.11-.3.73-1.97.36-4.21-1.01-5.85Zm-25.67-10.57c-.02.29-.04.58-.07.87l.08-.87h-.01Zm-1.13,7.65h0l.1-.48c-.04.16-.07.32-.11.48Z"/>
        <path class="cls-52" d="m160.92,218.15c-.39-.78-.74-1.66-1.06-2.62.04.04.07.08.1.12.6.72.93,1.6.95,2.5Z"/>
        <path class="cls-19" d="m159.86,215.53c-.42-.48-.89-.95-1.35-1.39-.34-.32-.67-.62-.97-.88l-.22-.2-.06-.3c-.4-1.99-.69-4.21-.85-6.63-.01-.22-.02-.45-.04-.68l.63-.23c.08-.03.17-.06.26-.09.3-.11.59-.21.89-.31.01.32.02.63.05.94,0,.09,0,.17.01.26.01.23.03.45.05.68.02.2.03.39.05.59.01.15.02.3.04.45.02.28.05.56.08.83.04.33.07.65.11.96.06.45.12.89.19,1.33.04.28.09.56.14.83.02.14.05.29.08.43h0c.02.1.04.2.05.29.09.44.19.86.29,1.27.16.65.34,1.27.53,1.86Z"/>
        <path class="cls-19" d="m135.68,203.92c-.02.29-.04.58-.07.87-.19,2.18-.51,4.31-.95,6.3-.04.16-.07.32-.11.48l-.46.17c-.19.07-.38.14-.56.22-.36.13-.72.28-1.05.42.1-.36.19-.72.28-1.1.04-.19.09-.39.13-.59.04-.16.07-.32.1-.48h0c.05-.24.1-.48.14-.72.03-.14.06-.28.08-.42.08-.44.16-.89.22-1.34.08-.51.14-1.01.21-1.53.03-.22.05-.45.08-.68h0c.04-.3.07-.59.09-.89v-.02c.02-.3.05-.6.07-.9.3.02.6.05.9.09.01,0,.03,0,.04,0l.86.11Z"/>
        <g>
          <path class="cls-60" d="m155.08,104.89h0c-8.25-4.43-13.63-7.5-21.41-6.86-5.65-1.99-11.09,1.35-23.07,7.04,2.88-2.85,5.42-6.05,7.54-9.55,1.35-2.21,2.47-4.45,3.27-6.72.26-.72,1.06-1.07,1.78-.81,4.29,1.59,7.39,5.73,10.4,9.01.04.05.11.05.16.02,5.98-3.4,8.41-6.22,11.08-5.78.56.09,1.07.41,1.41.87,1.43,1.98,2.44,3.69,3.36,5.33,1.51,2.7,3.35,5.2,5.47,7.43Z"/>
          <path class="cls-60" d="m106.2,108.15l3.77-3.73c2.85-2.83,5.35-5.98,7.41-9.37,1.38-2.26,2.45-4.47,3.19-6.55.21-.57.62-1.03,1.18-1.28.56-.26,1.19-.29,1.77-.07,3.8,1.41,6.7,4.69,9.26,7.59.36.41.72.81,1.07,1.21,1.78-1.04,3.21-2,4.49-2.86,2.74-1.84,4.55-3.06,6.66-2.72.78.13,1.51.57,1.99,1.23,1.38,1.91,2.37,3.55,3.42,5.43,1.46,2.62,3.25,5.06,5.34,7.26l.25.26v1.88l-2.18-1.17c-7.72-4.16-12.81-6.9-20.06-6.3l-.19.02-.18-.06c-4.56-1.6-9.04.56-17.98,4.89-1.36.66-2.83,1.37-4.4,2.11l-4.79,2.27Zm16.51-19.34c-.07,0-.14.02-.21.05-.08.04-.18.11-.23.25-.78,2.19-1.91,4.51-3.35,6.88-1.32,2.17-2.81,4.26-4.46,6.22.05-.02.1-.05.15-.07,8.01-3.87,12.85-6.21,17.49-5.45-.22-.25-.45-.5-.67-.76-2.54-2.87-5.17-5.84-8.54-7.09-.06-.02-.12-.03-.17-.03Zm12.95,8.23c5.66,0,10.26,1.99,15.74,4.86-.95-1.28-1.81-2.62-2.58-4.01-1.02-1.82-1.98-3.41-3.3-5.25-.2-.27-.5-.45-.82-.51-1.4-.23-2.89.78-5.36,2.43-1.06.71-2.31,1.56-3.81,2.46.04,0,.08,0,.12,0Zm-1.42-.67s.01.02.02.02c0,0-.01-.02-.02-.02Z"/>
        </g>
        <g>
          <path class="cls-24" d="m148.05,60.21c-4.24-5.88-6.12-11.77-3.33-17.68.43-.92.99-1.78,1.63-2.57,3.89-4.78,8.94-5.81,14.61-4.82.08.01.1.13.02.16-10.34,5.11-14.03,13.69-12.78,24.85,0,.09-.1.13-.15.06Z"/>
          <path class="cls-60" d="m148.12,61.15c-.31,0-.61-.15-.8-.41h0c-4.96-6.88-6.07-12.96-3.41-18.6.46-.97,1.04-1.89,1.74-2.75,3.76-4.62,8.82-6.3,15.47-5.14.42.07.75.41.81.83.06.43-.15.84-.54,1.03-9.54,4.72-13.55,12.54-12.28,23.94.05.45-.21.88-.63,1.04-.12.04-.24.07-.35.07Zm.66-1.47s0,0,0,0h0s0,0,0,0Zm8.43-23.98c-4.23,0-7.51,1.58-10.16,4.83-.61.75-1.12,1.55-1.51,2.38-2.06,4.35-1.57,8.91,1.54,14.18-.26-9.54,3.51-16.71,11.23-21.36-.37-.02-.74-.03-1.1-.03Z"/>
        </g>
        <circle class="cls-5" cx="174.88" cy="166.24" r="12.49"/>
        <path class="cls-40" d="m174.88,179.03c-7.06,0-12.8-5.74-12.8-12.8s5.74-12.8,12.8-12.8,12.8,5.74,12.8,12.8-5.74,12.8-12.8,12.8Zm0-24.99c-6.72,0-12.19,5.47-12.19,12.19s5.47,12.19,12.19,12.19,12.19-5.47,12.19-12.19-5.47-12.19-12.19-12.19Z"/>
        <path class="cls-40" d="m176.93,178.52c-3.92,0-7.91-1.87-10.39-4.99-2.51-3.16-3.07-7.07-1.53-10.72,1.45-3.42,4.99-6.1,8.81-6.67,3.15-.47,5.95.56,7.88,2.88,2.83,3.41,2.93,8.35.21,11.5-1.52,1.77-3.85,2.77-6.22,2.67-2.23-.09-4.24-1.14-5.51-2.88-1.34-1.83-1.64-4.29-.79-6.42.79-1.98,2.43-3.33,4.5-3.7,2.07-.37,4.25.52,5.55,2.27,1.16,1.56,1.33,3.43.46,5.12-.71,1.39-2.09,2.23-3.77,2.31-1.77.07-3.48-.7-4.28-1.96-.46-.72-.82-1.91.03-3.51.58-1.09,1.76-1.89,3.01-2.02,1.08-.12,2.05.26,2.72,1.05.81.95.94,2.42.31,3.58-.56,1.02-1.56,1.54-2.69,1.38-.16-.02-.28-.17-.26-.34.02-.17.17-.29.34-.26.88.12,1.64-.27,2.08-1.08.51-.94.42-2.13-.24-2.9-.54-.64-1.33-.93-2.2-.84-1.06.12-2.06.79-2.55,1.71-.56,1.06-.58,2.07-.05,2.9.68,1.07,2.19,1.75,3.74,1.68,1.47-.07,2.66-.79,3.26-1.98.76-1.48.61-3.12-.41-4.49-1.15-1.55-3.14-2.36-4.96-2.04-1.86.33-3.33,1.55-4.04,3.33-.78,1.94-.5,4.18.72,5.84,1.17,1.59,3.01,2.55,5.05,2.63,2.19.08,4.34-.83,5.74-2.46,2.52-2.93,2.43-7.54-.22-10.72-1.79-2.16-4.4-3.1-7.33-2.67-3.62.54-6.97,3.07-8.34,6.3-1.45,3.44-.93,7.12,1.44,10.11,2.78,3.5,7.54,5.35,11.84,4.6.16-.03.32.08.35.25.03.16-.08.32-.25.35-.67.12-1.35.17-2.03.17Z"/>
        <g>
          <path class="cls-24" d="m193.61,195.69c2.11,5.62,2.76,10.78,1.97,16.39-.39,2.7-1.11,5.52-2.17,8.53-.04.1-.18.07-.17-.03.14-4.15-.52-8.56-1.62-13.07-1.39-5.74-3.46-11.65-5.41-17.37-.17-.51-.34-1.03-.5-1.55-3.35-10.78-3.46-22.33-.28-33.19,2.75-9.38,4.63-14.52,2.68-21.25-1.35-4.65-4.25-8.7-8.12-11.6-5.21-3.91-11.48-7.42-18.71-12.37-2.26-1.54-4.33-3.31-6.2-5.29h0c-2.12-2.24-3.96-4.74-5.47-7.44-.92-1.64-1.93-3.35-3.36-5.33-.34-.46-.84-.78-1.41-.87-2.68-.43-5.1,2.38-11.08,5.78-.05.03-.12.02-.16-.02-3.02-3.28-6.11-7.42-10.4-9.01-.72-.27-1.52.09-1.78.81-.8,2.26-1.92,4.51-3.27,6.72-2.12,3.49-4.66,6.69-7.54,9.55-3.48,3.46-7.44,6.42-11.75,8.83-.69.39-1.37.77-2.05,1.16-8.33,4.81-15.22,11.78-19.65,20.32-.49.94-.88,1.79-1.2,2.58,1.55-19.45,14.14-36.76,36.39-48.31l.39-3.47,8.88-.43c21.39-6.55,46.84,1.76,63.61,16.93,9.44,8.54,15.72,19.61,17.61,34.19-4.03,15.05-5.79,21.39-9.06,31.67-1.12,3.5-1.93,7.11-2.3,10.76-.18,1.82-.25,3.5-.2,5.09.03,1.29.14,2.52.31,3.71.37,2.6,1.1,5.14,2.02,7.6Z"/>
          <path class="cls-60" d="m193.33,221.58c-.07,0-.14,0-.21-.02-.48-.1-.81-.53-.79-1.03.13-3.66-.4-7.85-1.6-12.8-1.28-5.29-3.15-10.75-4.96-16.03l-.43-1.25c-.18-.52-.35-1.05-.51-1.58-3.42-11-3.52-22.66-.29-33.71.23-.79.45-1.54.67-2.27,2.32-7.83,3.72-12.56,2.01-18.47-1.26-4.35-4.03-8.3-7.79-11.13-2.9-2.18-6.22-4.28-9.73-6.51-2.84-1.8-5.77-3.66-8.94-5.84-2.32-1.59-4.45-3.41-6.34-5.42l-.25-.27c-2.08-2.24-3.88-4.71-5.35-7.35-1.02-1.82-1.98-3.41-3.3-5.25-.2-.27-.5-.45-.82-.51-1.4-.23-2.89.78-5.36,2.44-1.36.91-3.04,2.05-5.14,3.24-.44.24-.97.15-1.29-.21-.49-.53-.99-1.1-1.5-1.67-2.54-2.87-5.17-5.84-8.54-7.09-.12-.05-.26-.04-.38.01-.08.04-.18.11-.23.25-.78,2.19-1.91,4.51-3.35,6.88-2.14,3.51-4.72,6.78-7.68,9.72-3.5,3.48-7.52,6.5-11.94,8.98-.68.38-1.36.77-2.03,1.16-8.36,4.83-15.04,11.73-19.3,19.96-.47.91-.85,1.73-1.16,2.5l-2.21,5.52.47-5.93c1.59-19.98,14.53-37.3,36.45-48.82l.42-3.76,9.53-.47c20.35-6.17,46.2.71,64.37,17.15,10.21,9.24,16.07,20.61,17.9,34.74l.02.18-.05.17c-3.93,14.69-5.73,21.23-9.08,31.71-1.16,3.61-1.92,7.16-2.26,10.58-.18,1.79-.24,3.42-.2,4.97.03,1.21.13,2.39.3,3.61.32,2.3.97,4.72,1.97,7.41h0c2.18,5.82,2.82,11.17,2.02,16.84-.39,2.72-1.11,5.57-2.21,8.7-.15.41-.53.67-.94.67Zm.81-1s0,.02,0,.03c0-.01,0-.02,0-.03Zm-38.16-116.05c1.74,1.81,3.69,3.46,5.8,4.91,3.14,2.15,6.06,4.01,8.89,5.8,3.54,2.25,6.89,4.37,9.85,6.59,4.08,3.07,7.07,7.35,8.44,12.08,1.86,6.41.4,11.33-2.01,19.49-.22.73-.44,1.48-.67,2.27-3.13,10.71-3.04,22.01.28,32.67.16.52.32,1.02.49,1.53l.43,1.25c1.82,5.32,3.71,10.83,5.01,16.19.73,3.02,1.22,5.78,1.47,8.32.31-1.26.55-2.48.72-3.67.76-5.36.15-10.43-1.92-15.95h0c-1.05-2.81-1.73-5.36-2.07-7.79-.18-1.29-.29-2.54-.32-3.82-.05-1.62.02-3.33.2-5.2.36-3.54,1.14-7.23,2.34-10.95,3.32-10.4,5.11-16.91,9-31.45-1.8-13.61-7.46-24.55-17.3-33.46-17.75-16.06-42.96-22.78-62.74-16.73l-.22.04-8.11.4-.36,3.18-.43.22c-19.63,10.19-31.95,25.07-35.2,42.31,4.43-7.57,10.88-13.93,18.79-18.5.68-.39,1.36-.78,2.05-1.17,4.28-2.39,8.17-5.31,11.55-8.68,2.85-2.83,5.35-5.98,7.41-9.37,1.38-2.26,2.45-4.47,3.19-6.55.21-.57.62-1.03,1.18-1.28.56-.26,1.19-.29,1.77-.07,3.8,1.41,6.7,4.69,9.26,7.59.36.41.72.81,1.07,1.21,1.78-1.04,3.21-2,4.49-2.86,2.74-1.84,4.55-3.06,6.66-2.72.78.13,1.51.57,1.99,1.23,1.38,1.91,2.37,3.55,3.42,5.43,1.46,2.62,3.25,5.06,5.34,7.26l.25.27Zm-21.74-8.16s.01.02.02.02c0,0-.01-.02-.02-.02Z"/>
        </g>
        <path class="cls-24" d="m201.5,138.63c2.22-1.77,1.65-1.39,2.22-1.77-.33,1.67.07,1.73.34,5.76l7.24-9.01-17.06-45.7-56.48-15.75-27.16,5.57-24.3,19.72c-7.96,18.12-13.26,33.9-13.42,45.17,1.94-5.25,7.49-16.39,12.75-20.77l6.24-12.44,11.84-8.01,9.74-10.36,5.92-4.25,20.03-1.41,11.39,2.51,7.93,3.75,13.93,9.75,12.19,8.36,11.49,12.19,5.17,16.68Z"/>
        <path class="cls-19" d="m134.71,209.92c6.55-6.21,13.53-8.26,22.4-9.34l-22.3-.62-.1,9.96Z"/>
        <path class="cls-19" d="m78.09,167.01c-.09,0-.18,0-.26,0-.94-.05-1.83-.5-2.43-1.22-.58-.69-.85-1.55-.75-2.42.03-.21,0-.38-.08-.51-1.8-2.96-1.87-3.75-1.41-4.05l.06-.03c1.13-.41,2-.28,2.57.38.11.13.1.32-.03.43-.13.11-.32.1-.43-.03-.38-.44-.99-.52-1.84-.23.01.08.05.67,1.6,3.22.15.25.21.55.17.86-.08.73.13,1.43.61,1.99.5.59,1.23.96,2.01,1,.28.02.57,0,.85-.04.17-.02.32.09.34.25.02.16-.09.32-.25.34-.24.04-.48.05-.71.05Z"/>
        <path class="cls-19" d="m208.9,166.56c-1.32,0-2.59-.57-3.04-1.2-.1-.14-.07-.32.07-.42.14-.1.32-.07.42.07.44.62,2.32,1.33,3.81.71.44-.18.78-.57.93-1.07.31-.99.24-2,.18-2.9-.04-.55-.07-1.02-.01-1.42.03-.23.16-.43.36-.56.2-.13.45-.17.68-.11.82.22,1.57.46,2.24.67,2.65.84,3.96,1.19,4.78-.11.41-1.08.45-2.68.38-4.89-.03-.99-.72-1.83-1.65-2.01-1.47-.27-3.22.16-5.22,1.3-.14.08-.33.03-.41-.11-.08-.14-.03-.33.11-.41,2.13-1.21,4.03-1.67,5.63-1.37,1.2.22,2.1,1.31,2.14,2.58.07,2.29.02,3.96-.45,5.18-1.14,1.8-2.97,1.22-5.5.41-.66-.21-1.41-.45-2.21-.67-.07-.02-.14,0-.19.03-.03.02-.08.06-.09.14-.05.34-.02.78.01,1.29.06.9.13,2.02-.21,3.12-.21.67-.67,1.2-1.28,1.45-.48.2-.99.28-1.49.28Z"/>
        <g>
          <g>
            <path class="cls-24" d="m113.52,127.76c.36-1.23.54-2.76.5-4.67-.02-.99-.69-1.85-1.65-2.09-7.31-1.85-13.8-1.41-18.79,2.96-.02.02,0,.06.02.06,6.18.05,12.4.74,18.77,4.22.45.25,1,.02,1.15-.48Z"/>
            <path class="cls-60" d="m112.76,128.94c-.23,0-.46-.06-.67-.17-6.51-3.56-12.73-4.1-18.48-4.15h-.42s-.18-.41-.18-.41c-.09-.25-.02-.53.18-.7,4.75-4.16,11.07-5.18,19.33-3.09,1.22.31,2.08,1.4,2.11,2.67.04,1.9-.14,3.53-.53,4.85h0c-.12.41-.41.74-.81.9-.17.07-.35.11-.53.11Zm-17.55-5.5c5.27.15,11.32.91,17.45,4.27.07.04.13.03.17.01.03-.01.09-.05.11-.13h0c.35-1.21.51-2.72.48-4.49-.01-.72-.51-1.34-1.2-1.52-7.14-1.8-12.73-1.2-17.02,1.86Zm-1.6-.03h0,0Z"/>
          </g>
          <g>
            <path class="cls-24" d="m145.84,127.76c-.4-1.23-.6-2.76-.55-4.67.02-.99.76-1.85,1.82-2.09,8.04-1.85,15.19-1.41,20.68,2.96.02.02,0,.06-.02.06-6.8.05-13.64.74-20.65,4.22-.5.25-1.1.02-1.26-.48Z"/>
            <path class="cls-60" d="m146.67,128.94c-.2,0-.41-.04-.6-.12-.39-.16-.69-.48-.81-.87h0c-.43-1.33-.62-2.97-.58-4.87.03-1.27.97-2.36,2.29-2.67,9.05-2.08,15.98-1.07,21.19,3.08l.33.27-.13.44c-.09.26-.33.43-.6.43-6.03.05-13.18.58-20.38,4.16-.22.11-.46.16-.69.16Zm8.69-8.37c-2.48,0-5.19.34-8.13,1.01-.78.18-1.33.8-1.35,1.52-.04,1.77.14,3.27.53,4.47h0c.02.08.09.11.13.13.09.04.2.03.29-.01,6.75-3.35,13.4-4.11,19.19-4.26-2.97-1.92-6.5-2.87-10.66-2.87Zm12.03,3.86s0,0,0,0c0,0,0,0,0,0Z"/>
          </g>
        </g>
        <g>
          <path class="cls-4" d="m148.92,151.51c10.27.89,19.96.1,29.39-2.42l-2.01-6.75-3.78-4.22-3.98-1.54-3.89-.66-4.17.26-3.06.98-1.73,1.14-2.28,1.87-1.94,2.66-1.61,3.37-1.28,3.97.34,1.34Z"/>
          <g class="cls-31">
            <rect class="cls-43" x="153.37" y="136.09" width="18.7" height="15.76"/>
            <circle class="cls-43" cx="162.64" cy="142.88" r="8.77"/>
            <circle class="cls-61" cx="162.64" cy="142.88" r="8.69"/>
            <circle class="cls-30" cx="162.64" cy="142.88" r="8.61"/>
            <circle class="cls-17" cx="162.64" cy="142.88" r="8.53"/>
            <circle class="cls-50" cx="162.64" cy="142.88" r="8.45"/>
            <circle class="cls-54" cx="162.64" cy="142.88" r="8.37"/>
            <circle class="cls-51" cx="162.64" cy="142.88" r="8.29"/>
            <circle class="cls-1" cx="162.64" cy="142.88" r="8.21"/>
            <circle class="cls-39" cx="162.64" cy="142.88" r="8.13"/>
            <circle class="cls-20" cx="162.64" cy="142.88" r="8.05"/>
            <circle class="cls-46" cx="162.64" cy="142.88" r="7.97"/>
            <circle class="cls-62" cx="162.64" cy="142.88" r="7.88"/>
            <circle class="cls-23" cx="162.64" cy="142.88" r="7.8"/>
            <circle class="cls-56" cx="162.64" cy="142.88" r="7.72"/>
            <circle class="cls-21" cx="162.64" cy="142.88" r="7.64"/>
            <circle class="cls-55" cx="162.64" cy="142.88" r="7.56"/>
            <circle class="cls-36" cx="162.64" cy="142.88" r="7.48"/>
            <circle class="cls-37" cx="162.64" cy="142.88" r="7.4"/>
            <circle class="cls-45" cx="162.64" cy="142.88" r="7.32"/>
            <circle class="cls-22" cx="162.64" cy="142.88" r="7.24"/>
            <circle class="cls-58" cx="162.64" cy="142.88" r="7.16"/>
            <circle class="cls-24" cx="162.64" cy="142.88" r="7.08"/>
            <circle class="cls-24" cx="162.64" cy="142.88" r="6.99"/>
            <circle class="cls-24" cx="162.64" cy="142.88" r="6.91"/>
            <circle class="cls-27" cx="162.64" cy="142.88" r="6.81"/>
            <circle class="cls-7" cx="162.64" cy="142.88" r="6.7"/>
            <circle class="cls-7" cx="162.64" cy="142.88" r="6.6"/>
            <circle class="cls-28" cx="162.64" cy="142.88" r="6.5"/>
            <circle class="cls-28" cx="162.64" cy="142.88" r="6.39"/>
            <circle class="cls-47" cx="162.64" cy="142.88" r="6.29"/>
            <circle class="cls-53" cx="162.64" cy="142.88" r="6.18"/>
            <circle class="cls-59" cx="162.64" cy="142.88" r="6.08"/>
            <circle class="cls-6" cx="162.64" cy="142.88" r="5.98"/>
            <circle class="cls-6" cx="162.64" cy="142.88" r="5.87"/>
            <circle class="cls-13" cx="162.64" cy="142.88" r="5.77"/>
            <circle class="cls-13" cx="162.64" cy="142.88" r="5.66"/>
            <circle class="cls-29" cx="162.64" cy="142.88" r="5.56"/>
            <circle class="cls-29" cx="162.64" cy="142.88" r="5.45"/>
            <circle class="cls-10" cx="162.64" cy="142.88" r="5.35"/>
            <circle class="cls-10" cx="162.64" cy="142.88" r="5.25"/>
            <circle class="cls-14" cx="162.64" cy="142.88" r="5.14"/>
            <circle class="cls-12" cx="162.64" cy="142.88" r="5.04"/>
            <circle class="cls-38" cx="162.64" cy="142.88" r="4.93"/>
            <circle class="cls-38" cx="162.64" cy="142.88" r="4.83"/>
            <circle class="cls-69" cx="162.64" cy="142.88" r="4.73"/>
            <circle class="cls-69" cx="162.64" cy="142.88" r="4.62"/>
            <circle class="cls-34" cx="162.64" cy="142.88" r="4.52"/>
            <circle class="cls-34" cx="162.64" cy="142.88" r="4.41"/>
            <circle class="cls-16" cx="162.64" cy="142.88" r="4.31"/>
            <circle class="cls-16" cx="162.64" cy="142.88" r="4.2"/>
            <circle class="cls-16" cx="162.64" cy="142.88" r="4.1"/>
            <circle class="cls-66" cx="162.64" cy="142.88" r="4"/>
            <circle class="cls-66" cx="162.64" cy="142.88" r="3.89"/>
            <circle class="cls-2" cx="162.64" cy="142.88" r="3.79"/>
            <circle class="cls-2" cx="162.64" cy="142.88" r="3.68"/>
            <circle class="cls-2" cx="162.64" cy="142.88" r="3.58"/>
            <circle class="cls-49" cx="162.64" cy="142.88" r="3.47"/>
            <circle class="cls-49" cx="162.64" cy="142.88" r="3.37"/>
            <circle class="cls-49" cx="162.64" cy="142.88" r="3.27"/>
            <circle class="cls-64" cx="162.64" cy="142.88" r="3.16"/>
            <circle class="cls-64" cx="162.64" cy="142.88" r="3.06"/>
            <circle class="cls-64" cx="162.64" cy="142.88" r="2.95"/>
            <circle class="cls-25" cx="162.64" cy="142.88" r="2.85"/>
            <circle class="cls-25" cx="162.64" cy="142.88" r="2.75"/>
            <circle class="cls-25" cx="162.64" cy="142.88" r="2.64"/>
            <circle class="cls-42" cx="162.64" cy="142.88" r="2.54"/>
            <circle class="cls-42" cx="162.64" cy="142.88" r="2.43"/>
            <circle class="cls-42" cx="162.64" cy="142.88" r="2.33"/>
            <circle class="cls-63" cx="162.64" cy="142.88" r="2.22"/>
            <circle class="cls-26" cx="162.64" cy="142.88" r="2.12"/>
            <circle class="cls-26" cx="162.64" cy="142.88" r="2.02"/>
            <circle class="cls-26" cx="162.64" cy="142.88" r="1.91"/>
            <circle class="cls-26" cx="162.64" cy="142.88" r="1.81"/>
            <circle class="cls-26" cx="162.64" cy="142.88" r="1.7"/>
            <circle class="cls-35" cx="162.64" cy="142.88" r="1.6"/>
            <circle class="cls-35" cx="162.64" cy="142.88" r="1.49"/>
            <circle class="cls-35" cx="162.64" cy="142.88" r="1.39"/>
            <circle class="cls-35" cx="162.64" cy="142.88" r="1.29"/>
            <circle class="cls-35" cx="162.64" cy="142.88" r="1.18"/>
            <circle class="cls-35" cx="162.64" cy="142.88" r="1.08"/>
            <circle class="cls-35" cx="162.64" cy="142.88" r=".97"/>
            <circle class="cls-35" cx="162.64" cy="142.88" r=".87"/>
            <circle class="cls-65" cx="162.64" cy="142.88" r=".77"/>
            <circle class="cls-65" cx="162.64" cy="142.88" r=".66"/>
            <circle class="cls-65" cx="162.64" cy="142.88" r=".56"/>
            <circle class="cls-65" cx="162.64" cy="142.88" r=".45"/>
            <circle class="cls-65" cx="162.64" cy="142.88" r=".35"/>
            <circle class="cls-65" cx="162.64" cy="142.88" r=".24"/>
            <circle class="cls-65" cx="162.64" cy="142.88" r=".14"/>
          </g>
          <path class="cls-67" d="m148.34,151.99s-.09,0-.13-.01c-.33-.07-.53-.39-.46-.72,2.57-11.74,8.58-16.91,18.38-15.82,7.36,1.16,10.27,5.11,12.85,11.97l4.53-2.3c.3-.15.66-.03.81.27.15.3.03.66-.27.81l-5.75,2.92-.23-.64c-2.54-6.97-5.11-10.71-12.11-11.82-9.18-1.02-14.6,3.71-17.04,14.88-.06.28-.31.47-.59.47Z"/>
        </g>
        <g>
          <path class="cls-4" d="m111.59,150.74c-10.16,1.72-19.88,1.73-29.48,0l1.45-6.89,3.42-4.51,3.84-1.86,3.82-.98,4.17-.09,3.13.72,1.82,1,2.42,1.68,2.15,2.49,1.88,3.23,1.6,3.85-.23,1.36Z"/>
          <g class="cls-18">
            <rect class="cls-43" x="87.01" y="136.46" width="18.7" height="15.76"/>
            <circle class="cls-43" cx="96.27" cy="143.25" r="8.77"/>
            <circle class="cls-61" cx="96.27" cy="143.25" r="8.69"/>
            <circle class="cls-30" cx="96.27" cy="143.25" r="8.61"/>
            <circle class="cls-17" cx="96.27" cy="143.25" r="8.53"/>
            <circle class="cls-50" cx="96.27" cy="143.25" r="8.45"/>
            <circle class="cls-54" cx="96.27" cy="143.25" r="8.37"/>
            <circle class="cls-51" cx="96.27" cy="143.25" r="8.29"/>
            <circle class="cls-1" cx="96.27" cy="143.25" r="8.21"/>
            <circle class="cls-39" cx="96.27" cy="143.25" r="8.13"/>
            <circle class="cls-20" cx="96.27" cy="143.25" r="8.05"/>
            <circle class="cls-46" cx="96.27" cy="143.25" r="7.97"/>
            <circle class="cls-62" cx="96.27" cy="143.25" r="7.88"/>
            <circle class="cls-23" cx="96.27" cy="143.25" r="7.8"/>
            <circle class="cls-56" cx="96.27" cy="143.25" r="7.72"/>
            <circle class="cls-21" cx="96.27" cy="143.25" r="7.64"/>
            <circle class="cls-55" cx="96.27" cy="143.25" r="7.56"/>
            <circle class="cls-36" cx="96.27" cy="143.25" r="7.48"/>
            <circle class="cls-37" cx="96.27" cy="143.25" r="7.4"/>
            <circle class="cls-45" cx="96.27" cy="143.25" r="7.32"/>
            <circle class="cls-22" cx="96.27" cy="143.25" r="7.24"/>
            <circle class="cls-58" cx="96.27" cy="143.25" r="7.16"/>
            <circle class="cls-24" cx="96.27" cy="143.25" r="7.08"/>
            <circle class="cls-24" cx="96.27" cy="143.25" r="6.99"/>
            <circle class="cls-24" cx="96.27" cy="143.25" r="6.91"/>
            <circle class="cls-27" cx="96.27" cy="143.25" r="6.81"/>
            <circle class="cls-7" cx="96.27" cy="143.25" r="6.7"/>
            <circle class="cls-7" cx="96.27" cy="143.25" r="6.6"/>
            <circle class="cls-28" cx="96.27" cy="143.25" r="6.5"/>
            <circle class="cls-28" cx="96.27" cy="143.25" r="6.39"/>
            <circle class="cls-47" cx="96.27" cy="143.25" r="6.29"/>
            <circle class="cls-53" cx="96.27" cy="143.25" r="6.18"/>
            <circle class="cls-59" cx="96.27" cy="143.25" r="6.08"/>
            <circle class="cls-6" cx="96.27" cy="143.25" r="5.98"/>
            <circle class="cls-6" cx="96.27" cy="143.25" r="5.87"/>
            <circle class="cls-13" cx="96.27" cy="143.25" r="5.77"/>
            <circle class="cls-13" cx="96.27" cy="143.25" r="5.66"/>
            <circle class="cls-29" cx="96.27" cy="143.25" r="5.56"/>
            <circle class="cls-29" cx="96.27" cy="143.25" r="5.45"/>
            <circle class="cls-10" cx="96.27" cy="143.25" r="5.35"/>
            <circle class="cls-10" cx="96.27" cy="143.25" r="5.25"/>
            <circle class="cls-14" cx="96.27" cy="143.25" r="5.14"/>
            <circle class="cls-12" cx="96.27" cy="143.25" r="5.04"/>
            <circle class="cls-38" cx="96.27" cy="143.25" r="4.93"/>
            <circle class="cls-38" cx="96.27" cy="143.25" r="4.83"/>
            <circle class="cls-69" cx="96.27" cy="143.25" r="4.73"/>
            <circle class="cls-69" cx="96.27" cy="143.25" r="4.62"/>
            <circle class="cls-34" cx="96.27" cy="143.25" r="4.52"/>
            <circle class="cls-34" cx="96.27" cy="143.25" r="4.41"/>
            <circle class="cls-16" cx="96.27" cy="143.25" r="4.31"/>
            <circle class="cls-16" cx="96.27" cy="143.25" r="4.2"/>
            <circle class="cls-16" cx="96.27" cy="143.25" r="4.1"/>
            <circle class="cls-66" cx="96.27" cy="143.25" r="4"/>
            <circle class="cls-66" cx="96.27" cy="143.25" r="3.89"/>
            <circle class="cls-2" cx="96.27" cy="143.25" r="3.79"/>
            <circle class="cls-2" cx="96.27" cy="143.25" r="3.68"/>
            <circle class="cls-2" cx="96.27" cy="143.25" r="3.58"/>
            <circle class="cls-49" cx="96.27" cy="143.25" r="3.47"/>
            <circle class="cls-49" cx="96.27" cy="143.25" r="3.37"/>
            <circle class="cls-49" cx="96.27" cy="143.25" r="3.27"/>
            <circle class="cls-64" cx="96.27" cy="143.25" r="3.16"/>
            <circle class="cls-64" cx="96.27" cy="143.25" r="3.06"/>
            <circle class="cls-64" cx="96.27" cy="143.25" r="2.95"/>
            <circle class="cls-25" cx="96.27" cy="143.25" r="2.85"/>
            <circle class="cls-25" cx="96.27" cy="143.25" r="2.75"/>
            <circle class="cls-25" cx="96.27" cy="143.25" r="2.64"/>
            <circle class="cls-42" cx="96.27" cy="143.25" r="2.54"/>
            <circle class="cls-42" cx="96.27" cy="143.25" r="2.43"/>
            <circle class="cls-42" cx="96.27" cy="143.25" r="2.33"/>
            <circle class="cls-63" cx="96.27" cy="143.25" r="2.22"/>
            <circle class="cls-26" cx="96.27" cy="143.25" r="2.12"/>
            <circle class="cls-26" cx="96.27" cy="143.25" r="2.02"/>
            <circle class="cls-26" cx="96.27" cy="143.25" r="1.91"/>
            <circle class="cls-26" cx="96.27" cy="143.25" r="1.81"/>
            <circle class="cls-26" cx="96.27" cy="143.25" r="1.7"/>
            <circle class="cls-35" cx="96.27" cy="143.25" r="1.6"/>
            <circle class="cls-35" cx="96.27" cy="143.25" r="1.49"/>
            <circle class="cls-35" cx="96.27" cy="143.25" r="1.39"/>
            <circle class="cls-35" cx="96.27" cy="143.25" r="1.29"/>
            <circle class="cls-35" cx="96.27" cy="143.25" r="1.18"/>
            <circle class="cls-35" cx="96.27" cy="143.25" r="1.08"/>
            <circle class="cls-35" cx="96.27" cy="143.25" r=".97"/>
            <circle class="cls-35" cx="96.27" cy="143.25" r=".87"/>
            <circle class="cls-65" cx="96.27" cy="143.25" r=".77"/>
            <circle class="cls-65" cx="96.27" cy="143.25" r=".66"/>
            <circle class="cls-65" cx="96.27" cy="143.25" r=".56"/>
            <circle class="cls-65" cx="96.27" cy="143.25" r=".45"/>
            <circle class="cls-65" cx="96.27" cy="143.25" r=".35"/>
            <circle class="cls-65" cx="96.27" cy="143.25" r=".24"/>
            <circle class="cls-65" cx="96.27" cy="143.25" r=".14"/>
          </g>
          <path class="cls-67" d="m112.16,151.17c-.26,0-.5-.17-.58-.43-3.35-10.94-9.14-15.2-18.23-13.43-6.86,1.67-9.12,5.61-11.07,12.77l-.18.66-5.97-2.44c-.31-.13-.46-.48-.33-.79.13-.31.48-.46.79-.33l4.71,1.92c2.01-7.04,4.59-11.21,11.8-12.97,9.71-1.9,16.12,2.77,19.64,14.26.1.32-.08.66-.4.75-.06.02-.12.03-.18.03Z"/>
        </g>
        <path class="cls-19" d="m149.42,140.83s-.08,0-.12-.02c-.24-.07-.38-.32-.31-.56,1.22-4.28,5-7.31,11.54-9.27.24-.07.49.07.56.3.07.24-.06.49-.3.56-6.22,1.86-9.8,4.69-10.93,8.65-.06.2-.24.33-.43.33Z"/>
        <path class="cls-19" d="m110.66,140.24c-.18,0-.35-.11-.42-.28-1.29-3.18-3.02-5.19-5.47-6.33-.23-.11-.33-.37-.22-.6.11-.23.37-.33.6-.22,2.63,1.22,4.57,3.45,5.93,6.81.09.23-.02.5-.25.59-.06.02-.11.03-.17.03Z"/>
        <path class="cls-19" d="m126.01,166.84c-.11,0-.23-.03-.33-.1-.28-.18-.36-.56-.17-.84,1.16-1.76,2.43-2.7,3.79-2.77,1.45-.07,2.91.8,4.44,2.67.21.26.17.64-.09.85-.26.21-.64.17-.85-.09-1.25-1.53-2.43-2.29-3.44-2.23-.95.05-1.91.8-2.84,2.22-.12.18-.31.27-.5.27Z"/>
        <path class="cls-4" d="m117.65,175.5c11.68.87,23.37-.04,35.05-2.72.04,0,.07.03.05.06-2.96,7.7-7.75,13.38-18.2,14.27-11.62.58-17.31-3.24-17.21-11.34,0-.16.14-.29.3-.28Z"/>
        <path class="cls-19" d="m132.37,187.77c-5.8,0-10.03-1.25-12.59-3.72-2.06-1.99-3.09-4.77-3.04-8.29,0-.24.11-.48.29-.64.18-.16.42-.25.66-.23h0c11.57.86,23.3-.05,34.88-2.71l.35-.08.28.29c.16.18.2.43.12.66-3.59,9.34-9.36,13.86-18.71,14.66-.77.04-1.51.06-2.23.06Zm-14.43-11.65c.03,3.01.93,5.38,2.67,7.06,2.63,2.54,7.32,3.66,13.91,3.32,8.59-.74,13.82-4.62,17.27-12.91-11.24,2.47-22.62,3.32-33.85,2.52Z"/>
        <path class="cls-11" d="m127.14,180.88c-2.42,0-5.22-.15-8.21-.6-.16-.02-.28-.18-.25-.34.03-.16.18-.28.34-.25,5.17.78,9.8.65,12.77.41.17-.01.31.11.33.28.01.17-.11.31-.28.33-1.29.11-2.89.19-4.7.19Z"/>
        <path class="cls-5" d="m99.88,167.78c0,5.13-3.1,9.53-7.52,11.45-.08-.08-.15-.16-.23-.23-2.92-2.96-5.48-6.18-7.63-9.62-2.12-3.4-3.83-7.01-5.1-10.78-.04-.1-.07-.21-.1-.31,2.18-1.86,5-3,8.1-3,6.9,0,12.49,5.59,12.49,12.49Z"/>
        <path class="cls-40" d="m87.39,154.99c-3.03,0-5.9,1.05-8.2,2.99.03.1.07.21.1.31.03.1.07.21.1.31,2.22-1.94,5.03-3,8-3,6.72,0,12.19,5.47,12.19,12.19,0,4.93-2.96,9.33-7.45,11.22.08.07.15.15.23.23.08.08.16.15.24.23,4.58-2.04,7.58-6.59,7.58-11.68,0-7.05-5.74-12.79-12.79-12.79Z"/>
        <path class="cls-19" d="m92.6,179.46c-.3.13-.61.26-.92.37-.05.02-.11.04-.17.06l-.33.11-.07-.34c-.04-.16-.09-.31-.17-.44-.13-.21-.28-.41-.45-.61-.01-.01-.02-.03-.04-.05-.04-.05-.08-.1-.13-.15-.14-.16-.28-.33-.41-.49-.59-.79-1.23-1.51-1.78-2.11-.22-.24-.45-.47-.7-.73-.19-.2-.4-.41-.63-.64l-.05-.06c-.18-.31-.43-.6-.68-.85-.05-.05-.1-.1-.14-.16l-.13-.18-.05-.12c-.09-.2-.17-.39-.25-.54-.04-.07-.08-.14-.11-.21-.49-.69-.95-1.38-1.41-2.09-.01-.02-.02-.04-.04-.05-.28-.31-.6-.59-.91-.84l-.08-.09c-.3-.57-.58-1.12-.83-1.68-.56-1.23-1.23-2.49-2.11-3.98-.82-1.39-1.61-2.9-1.79-4.57v-.14s.09-.1.09-.1c.05-.05.1-.1.14-.14.24-.24.48-.45.73-.66.03.1.07.21.1.31.03.1.07.21.1.31.3.88.62,1.76.97,2.62.08.22.17.43.27.65.46,1.12.96,2.21,1.51,3.29.12.25.25.5.39.75.61,1.18,1.27,2.33,1.97,3.46.13.2.25.4.39.6.17.28.36.56.55.83.59.89,1.22,1.77,1.88,2.63.13.18.27.36.41.53.93,1.2,1.91,2.37,2.96,3.49.13.16.28.31.42.46.34.36.68.72,1.03,1.07.08.07.15.15.23.23.08.08.16.15.24.23Z"/>
        <path class="cls-4" d="m167.42,138.01s.03.01.04.01c2.05.56,3.25,3.19,2.64,5.74,0,.02-.01.03-.02.05-.15.42-.71.35-.76-.11-.2-1.91-.95-3.63-2.2-5.19-.19-.24.01-.6.29-.51Z"/>
        <path class="cls-4" d="m100.76,138.43s.03.01.04.01c2.05.56,3.25,3.19,2.64,5.74,0,.02-.01.03-.02.05-.15.42-.71.35-.76-.11-.2-1.91-.95-3.63-2.2-5.19-.19-.24.01-.6.29-.51Z"/>
        <path class="cls-15" d="m146.3,223.64c-1.23,0-2.48-.27-3.55-.81-1.97-.99-5.12-2.75-9.66-6.54-.03-.03-.04-.07,0-.11s.07-.04.11,0c4.52,3.79,7.66,5.54,9.63,6.53,2.01,1.01,4.69,1.06,6.53.12,2.89-1.47,6.22-3.34,8.99-6.03.03-.03.08-.03.11,0s.03.08,0,.11c-2.79,2.71-6.13,4.58-9.03,6.06-.9.46-2,.69-3.12.69Z"/>
        <path class="cls-8" d="m149.39,222.9l-1.83,1.48s-.02.02-.01.04l.55,2.29s-.03.06-.05.04l-1.97-1.28s-.03,0-.04,0l-2.01,1.23s-.06,0-.05-.04l.61-2.27s0-.03-.01-.04l-1.79-1.53s-.01-.06.02-.06l2.35-.12s.03,0,.03-.02l.9-2.17s.05-.03.07,0l.84,2.2s.02.02.03.02l2.35.18s.04.04.02.06Z"/>
        <path class="cls-52" d="m179.72,270.27l-1.2-.16c.23-1.69.43-3.35.64-4.98,1.01-8.11,1.89-15.11,4.35-20.74,1.1-3.42,5.17-6.43,12.11-8.99-8.2.56-16.58.47-24.13.38-11.47-.13-21.37-.25-24.61,2.17-.2.15-.47.16-.68.03-5.62-3.48-22.31-3.4-35.72-3.34-9,.04-16.11.08-18.37-.92l.49-1.1c2.02.9,9.36.86,17.87.82,13.31-.07,29.81-.15,36.02,3.32,3.81-2.42,13.21-2.32,25.01-2.18,9.16.1,19.55.22,29.31-.84.31-.03.6.18.66.48.06.31-.12.61-.43.7-9.54,2.73-15.2,6.14-16.39,9.87,0,.02-.01.04-.02.06-2.4,5.48-3.27,12.41-4.27,20.43-.2,1.63-.41,3.3-.64,5Z"/>
        <path class="cls-52" d="m151.72,234.12c-.1,0-.2-.05-.26-.14-.09-.14-.05-.33.1-.42,7.13-4.45,13.73-8.03,19.62-10.64.14-.06.3-.01.38.12.08.13.05.3-.07.39-.6.48-1.19.95-1.78,1.42-2.94,2.34-5.74,4.57-7.58,6.62,2.04-.99,4.17-1.52,5.69-1.36.17.02.29.16.27.33-.02.17-.17.28-.33.27-1.71-.18-4.4.63-6.68,2.01-.12.07-.28.05-.38-.05-.1-.11-.11-.27-.02-.38,1.74-2.4,5.03-5.03,8.52-7.81-5.28,2.48-11.1,5.7-17.32,9.59-.05.03-.1.05-.16.05Z"/>
        <path class="cls-52" d="m140.61,233.47c-.06,0-.13-.02-.18-.06-6.82-5.09-13.77-9.37-20.64-12.73-.15-.07-.21-.25-.14-.4.07-.15.25-.21.4-.14,6.91,3.38,13.89,7.68,20.74,12.79.13.1.16.29.06.42-.06.08-.15.12-.24.12Z"/>
        <path class="cls-52" d="m133.14,231.73s-.07,0-.11-.02c-5.45-2.15-11.32-3.19-16.05-4.03-1.16-.21-2.27-.4-3.29-.6-.16-.03-.27-.19-.24-.35s.19-.27.35-.24c1.02.2,2.12.39,3.28.6,4.75.84,10.66,1.89,16.16,4.06.16.06.23.24.17.39-.05.12-.16.19-.28.19Z"/>
        <path class="cls-52" d="m156.37,227.09c-.09,0-.17-.04-.23-.11-.11-.13-.09-.32.04-.42,6.41-5.35,11.63-8.81,15.95-10.6.15-.06.33,0,.39.16.06.15,0,.33-.16.39-4.26,1.77-9.42,5.2-15.79,10.51-.06.05-.12.07-.19.07Z"/>
        <g>
          <circle class="cls-41" cx="154.94" cy="232.82" r="1.19"/>
          <path class="cls-32" d="m154.93,234.23c-.32,0-.64-.11-.91-.33-.6-.5-.67-1.4-.17-1.99.5-.6,1.4-.67,1.99-.17.6.5.67,1.4.17,1.99-.28.33-.68.5-1.08.5Zm0-2.37s-.06,0-.08,0c-.26.02-.49.14-.65.34-.17.2-.24.45-.22.7s.14.49.34.65c.4.34,1.01.29,1.35-.12.34-.41.29-1.01-.12-1.35-.18-.15-.39-.23-.62-.23Z"/>
        </g>
        <g>
          <circle class="cls-41" cx="139.02" cy="232.82" r="1.19"/>
          <path class="cls-32" d="m139.02,234.23c-.78,0-1.41-.63-1.41-1.41s.63-1.41,1.41-1.41,1.41.63,1.41,1.41-.63,1.41-1.41,1.41Zm0-2.37c-.53,0-.96.43-.96.96s.43.96.96.96.96-.43.96-.96-.43-.96-.96-.96Z"/>
        </g>
        <path class="cls-52" d="m152.35,263.86c-.2,0-.4-.1-.52-.29-1.7-2.83-.03-13.92,1.73-25.65.26-1.74.52-3.47.77-5.18.05-.33.35-.56.68-.51.33.05.56.35.51.68-.25,1.71-.51,3.45-.77,5.19-1.58,10.5-3.37,22.39-1.89,24.85.17.29.08.66-.21.83-.1.06-.2.09-.31.09Z"/>
        <path class="cls-52" d="m135.31,260.6s-.03,0-.04,0c-.33-.02-.58-.31-.56-.64.61-8.55,1.86-17.6,3.72-26.9.06-.33.38-.54.71-.47.33.07.54.38.47.71-1.85,9.25-3.1,18.25-3.7,26.75-.02.32-.29.56-.6.56Z"/>
        <path class="cls-52" d="m98.73,270.79c-.27,0-.51-.18-.58-.45-1.58-6.16-3.89-10.8-6.87-13.82-.23-.24-.23-.62,0-.85.24-.24.62-.23.85,0,2.05,2.08,3.8,4.87,5.22,8.35-1.14-10.09-1.3-17.04-.55-22.11.05-.33.36-.55.69-.51.33.05.56.36.51.69-.88,5.93-.47,14.58,1.33,28.02.04.32-.17.61-.48.67-.04,0-.08.01-.12.01Z"/>
        <path class="cls-40" d="m88.97,170.45c-.63.37-1.38.55-2.16.55-.46,0-.92-.07-1.38-.19-.19-.28-.37-.56-.55-.83,1.24.56,2.75.57,3.78-.05.66-.39,1.41-1.2,1.2-2.81-.14-1.14-.98-2.22-2.04-2.63-.83-.33-1.68-.19-2.37.4-.67.57-1.01,1.54-.86,2.43.13.74.58,1.29,1.27,1.54.16.05.24.23.17.39-.05.16-.23.24-.39.18-.88-.33-1.48-1.06-1.65-2-.19-1.1.22-2.27,1.06-2.99.87-.74,1.92-.91,2.98-.51,1.27.49,2.24,1.75,2.42,3.12.19,1.51-.34,2.73-1.5,3.42Z"/>
        <path class="cls-40" d="m92.35,170.19c-.92,1.91-2.67,3.31-4.63,3.78-.14-.17-.28-.35-.41-.53,1.9-.37,3.62-1.68,4.5-3.51.91-1.88.76-3.9-.39-5.53-1.15-1.62-3.4-2.44-5.49-1.98-1.79.39-3,1.61-3.32,3.34-.01.06-.04.11-.08.15-.14-.25-.27-.5-.39-.75.48-1.7,1.82-2.92,3.66-3.33,2.32-.51,4.83.4,6.11,2.22s1.44,4.05.45,6.14Z"/>
        <path class="cls-40" d="m91.1,177.92c-.14-.15-.29-.3-.42-.46,3.83-1.67,6.25-5.44,6.05-9.5-.22-4.57-3.82-9.62-8.84-9.88-2.76-.13-5.58,1.34-7.26,3.79-.1-.22-.18-.43-.27-.65,1.81-2.44,4.71-3.89,7.55-3.74,5.35.28,9.18,5.63,9.41,10.46.2,4.24-2.29,8.19-6.23,9.99Z"/>
        <circle class="cls-67" cx="162.26" cy="143.25" r="4.35"/>
        <circle class="cls-67" cx="96.33" cy="143.29" r="4.35"/>
      </g>
    </g>
  </g>
  <circle class="cls-9" cx="141.73" cy="141.73" r="135.93"/>
</svg>